<svg xmlns="http://www.w3.org/2000/svg" viewBox="0 0 500 500"><g id="freepik--background-complete--inject-219"><path d="M259.79,49a29,29,0,0,0-15.87-2.35,29.68,29.68,0,0,0-13.66,5.54A19.88,19.88,0,0,0,224,60.41a26.38,26.38,0,0,0-1.41,13.35,2.8,2.8,0,0,0,1.09,1.89,2.84,2.84,0,0,0,2.13.54l9.77-1.49A2.82,2.82,0,0,0,238,71.89c0-3.13,1-8.57,8.3-9.81a9,9,0,0,1,9.46,4.37,10.07,10.07,0,0,1,.56,9.1c-1.95,4.68-6.63,6.06-9.25,6.47a5.55,5.55,0,0,0-4.64,6.29L244,98.82a2.82,2.82,0,0,0,3.21,2.36l9.52-1.45a2.8,2.8,0,0,0,2.36-3.2l-.33-2.21a.12.12,0,0,1,.06-.13A27.83,27.83,0,0,0,268,86.32c4.08-5.51,5.58-12,4.46-19.44C270.83,56.31,264.67,51.35,259.79,49Z" style="fill:#ebebeb"></path><path d="M252.87,103l-.83.13a7.3,7.3,0,1,0,2.19,14.44l.84-.12a7.31,7.31,0,0,0-2.2-14.45Z" style="fill:#ebebeb"></path><path d="M63.67,218.78a21.2,21.2,0,0,0-9.61-6.61,21.48,21.48,0,0,0-10.7-.74,14.42,14.42,0,0,0-6.69,3.34,19.24,19.24,0,0,0-5.2,8.27,2,2,0,0,0,1.33,2.62l6.86,2.15a2,2,0,0,0,2.46-1.07c1-2.05,3.4-5.28,8.56-3.75a6.53,6.53,0,0,1,4.78,5.88A7.34,7.34,0,0,1,52.92,235c-2.77,2.44-6.27,1.84-8.11,1.27a4,4,0,0,0-5,2.63l-2.32,7.38a2,2,0,0,0,1.34,2.57l6.69,2.1a2.07,2.07,0,0,0,2.57-1.35l.48-1.55a.1.1,0,0,1,.09-.06,20.32,20.32,0,0,0,8.48-2.22,18.29,18.29,0,0,0,9.13-11.27C68.56,227.07,66.12,221.85,63.67,218.78Z" style="fill:#ebebeb"></path><path d="M41.88,251.85l-.58-.18a5.31,5.31,0,1,0-3.18,10.14l.58.18a5.31,5.31,0,0,0,3.18-10.14Z" style="fill:#ebebeb"></path><path d="M360.05,458.38c24.34-1.06,55.21-8.83,74.09-24.71a136.47,136.47,0,0,0-74.09,24.71" style="fill:#ebebeb"></path><path d="M377,429.6c24.34-1.06,55.21-8.83,74.09-24.71A136.47,136.47,0,0,0,377,429.6" style="fill:#ebebeb"></path><path d="M395.18,402.18c24.34-1.06,55.21-8.83,74.1-24.71a136.51,136.51,0,0,0-74.1,24.71" style="fill:#ebebeb"></path><path d="M415.49,373.9c24.22-4,54.06-15.48,70.81-33.41a137.45,137.45,0,0,0-70.81,33.41" style="fill:#ebebeb"></path><path d="M433.35,353c21.5-12.3,45.45-33.3,54.37-55.45A134.28,134.28,0,0,0,433.35,353" style="fill:#ebebeb"></path><path d="M424.69,362.89c6.62-24.14,8.68-56.6-1-79.62a137.14,137.14,0,0,0,1,79.62" style="fill:#ebebeb"></path><path d="M407.47,386c4.69-25.61,3.86-59.5-8.4-82.67a142.71,142.71,0,0,0,8.4,82.67" style="fill:#ebebeb"></path><path d="M387,414.26c4.69-25.61,3.85-59.51-8.4-82.67a142.71,142.71,0,0,0,8.4,82.67" style="fill:#ebebeb"></path><path d="M365.07,450.11c4.69-25.61,3.86-59.51-8.4-82.67a142.71,142.71,0,0,0,8.4,82.67" style="fill:#ebebeb"></path><path d="M356.73,463.35c-3.52,6.51-6.29,11.83-8.11,15.54q-1.33,2.7-2.1,4.28c-.22.45-.39.82-.53,1.12s-.17.39-.15.4a2.39,2.39,0,0,0,.23-.36c.17-.29.37-.64.61-1.08l2.25-4.2c1.93-3.66,4.78-8.92,8.37-15.39s8-14.09,13-22.47,10.8-17.47,17-26.87c12.51-18.78,24.75-35.16,33.89-46.78,4.57-5.82,8.32-10.49,10.95-13.68l3-3.71.76-1c.17-.23.25-.34.24-.36s-.12.09-.31.3l-.83.92-3.13,3.6c-2.71,3.12-6.54,7.73-11.18,13.5-9.28,11.54-21.62,27.87-34.15,46.68" style="fill:#e0e0e0"></path><path d="M314.73,295c8.88-21.93,14.47-52.34,8-75.43a132.64,132.64,0,0,0-8,75.43" style="fill:#ebebeb"></path><path d="M296.13,268.42c8.88-21.93,14.47-52.34,8.05-75.43a132.54,132.54,0,0,0-8.05,75.43" style="fill:#ebebeb"></path><path d="M279.24,241.28c8.89-21.93,14.47-52.35,8.06-75.43a132.62,132.62,0,0,0-8.06,75.43" style="fill:#ebebeb"></path><path d="M262.45,211.92c6.2-23,8.13-54-1-76a133.51,133.51,0,0,0,1,76" style="fill:#ebebeb"></path><path d="M251.21,187.73c-2.2-24-11.08-53.59-27.06-70.41a130.45,130.45,0,0,0,27.06,70.41" style="fill:#ebebeb"></path><path d="M256.44,199.36c-18.67-15.59-46.51-30.5-70.77-31.2a133.3,133.3,0,0,0,70.77,31.2" style="fill:#ebebeb"></path><path d="M269.87,223.88c-20.73-14.48-51-27.41-76.43-25.93a138.66,138.66,0,0,0,76.43,25.93" style="fill:#ebebeb"></path><path d="M286.6,253.43c-20.74-14.48-51-27.41-76.44-25.93a138.66,138.66,0,0,0,76.44,25.93" style="fill:#ebebeb"></path><path d="M309.44,287.22c-20.73-14.48-51-27.41-76.43-25.93a138.66,138.66,0,0,0,76.43,25.93" style="fill:#ebebeb"></path><path d="M317.78,299.92c4.33,5.75,7.91,10.33,10.46,13.44l2.93,3.58.78.92a1.88,1.88,0,0,0,.29.3,1.49,1.49,0,0,0-.22-.36l-.71-1-2.8-3.68c-2.46-3.18-6-7.82-10.22-13.6S309.06,286.8,303.68,279s-11.07-16.58-16.86-25.89c-11.55-18.63-21.08-36.05-27.66-48.82-3.3-6.38-5.91-11.58-7.68-15.19q-1.3-2.61-2.06-4.14l-.56-1.06a2,2,0,0,0-.22-.36s0,.14.13.39l.48,1.11,1.92,4.21c1.67,3.66,4.2,8.9,7.42,15.33,6.45,12.85,15.91,30.35,27.47,49" style="fill:#e0e0e0"></path><path d="M484.16,209.14a29.66,29.66,0,0,0-13.74-8.95,30.16,30.16,0,0,0-15.06-.68,20.27,20.27,0,0,0-9.27,4.94,26.91,26.91,0,0,0-7,11.8,2.82,2.82,0,0,0,.21,2.22,2.88,2.88,0,0,0,1.74,1.41l9.71,2.78a2.9,2.9,0,0,0,3.43-1.59c1.3-2.92,4.58-7.53,11.88-5.57a9.17,9.17,0,0,1,6.93,8.09,10.3,10.3,0,0,1-3.36,8.69c-3.8,3.52-8.75,2.81-11.35,2.07a5.67,5.67,0,0,0-7,3.86l-3,10.45a2.87,2.87,0,0,0,2,3.56l9.46,2.72a2.88,2.88,0,0,0,3.56-2l.63-2.19a.15.15,0,0,1,.12-.1,28.41,28.41,0,0,0,11.85-3.41c6.14-3.38,10.32-8.81,12.42-16.15C491.31,220.6,487.71,213.36,484.16,209.14Z" style="fill:#ebebeb"></path><path d="M454.71,256.35l-.83-.24a7.46,7.46,0,0,0-4.12,14.35l.83.24a7.46,7.46,0,1,0,4.12-14.35Z" style="fill:#ebebeb"></path><path d="M163.68,294.65a27.54,27.54,0,0,0-14.27-5.19A28.1,28.1,0,0,0,135.7,292a18.88,18.88,0,0,0-7.33,6.4,25,25,0,0,0-3.84,12.11,2.65,2.65,0,0,0,2.53,2.86l9.34.47a2.67,2.67,0,0,0,2.75-2.15c.56-2.91,2.55-7.76,9.54-7.52a8.49,8.49,0,0,1,7.95,5.84,9.54,9.54,0,0,1-1.2,8.54c-2.69,4-7.3,4.37-9.8,4.25a5.26,5.26,0,0,0-5.49,4.95l-.5,10.05a2.67,2.67,0,0,0,2.52,2.8l9.11.45a2.66,2.66,0,0,0,2.79-2.52l.11-2.12a.1.1,0,0,1,.08-.1,26.44,26.44,0,0,0,10-5.57c4.82-4.33,7.45-10.11,7.8-17.18C172.54,303.48,167.77,297.71,163.68,294.65Z" style="fill:#ebebeb"></path><path d="M147.05,343.4l-.8,0a6.91,6.91,0,1,0-.69,13.81l.8,0a6.91,6.91,0,0,0,.69-13.81Z" style="fill:#ebebeb"></path><path d="M115.11,472.68h8.64c5.09-18.12,7.53-38.29,4.2-55.14A144.46,144.46,0,0,0,115.11,472.68Z" style="fill:#ebebeb"></path><path d="M113.47,388.59a146.25,146.25,0,0,0-12.1,76c.09.21.19.41.29.62C111.27,443.22,118.21,412.56,113.47,388.59Z" style="fill:#ebebeb"></path><path d="M90.68,356.2a148.19,148.19,0,0,0-4.16,75c.31.75.63,1.52,1,2.29C94.51,410.29,98,379.1,90.68,356.2Z" style="fill:#ebebeb"></path><path d="M75.82,404.75a2.13,2.13,0,0,1-.11-.41,1.3,1.3,0,0,1,.19.38c.13.3.28.67.47,1.13l.52,1.32c.34.55.68,1.12,1,1.66-.71-24.75-7.45-55.76-21.66-74,.33,25.48,7.46,50.76,20.07,71.48l-.12-.35Z" style="fill:#ebebeb"></path><path d="M81.78,421l-.21-.55c-16.85-17-42.09-33.62-64.82-35.83C34.37,403.26,57.49,416.18,81.78,421Z" style="fill:#ebebeb"></path><path d="M93.57,447.15l-.29-.24a1.47,1.47,0,0,1,.1.22Z" style="fill:#ebebeb"></path><path d="M22.42,415.74A126.94,126.94,0,0,0,92.48,447l-.54-1.24C73.11,430.13,46,415.8,22.42,415.74Z" style="fill:#ebebeb"></path><path d="M36.61,447.15a128.33,128.33,0,0,0,44.05,25.53h19.76C82.07,458.89,57.88,447.2,36.61,447.15Z" style="fill:#ebebeb"></path><path d="M84,426.58c2.23,5.63,4.91,12.12,8,19.2l.54,1.24c3.47,8,7.44,16.63,11.83,25.66h1c-1.24-2.53-2.44-5-3.61-7.5-.1-.21-.2-.41-.29-.62-2.88-6.07-5.55-11.92-8-17.43a1.47,1.47,0,0,0-.1-.22c-2.11-4.77-4-9.27-5.8-13.44-.33-.77-.65-1.54-1-2.29-.7-1.68-1.37-3.31-2-4.86-2.76-6.77-5-12.27-6.41-16.09-.47-1.18-.87-2.19-1.21-3.06l-.52-1.32c-.19-.46-.34-.83-.47-1.13a1.3,1.3,0,0,0-.19-.38,2.13,2.13,0,0,0,.11.41l.39,1.17.12.35c.38,1.05.86,2.41,1.46,4.1.93,2.62,2.21,6,3.78,10.09l.21.55C82.46,422.76,83.18,424.61,84,426.58Z" style="fill:#e0e0e0"></path></g><g id="freepik--Floor--inject-219"><path d="M470.39,472.29c0,.15-98.68.27-220.38.27s-220.4-.12-220.4-.27S128.27,472,250,472,470.39,472.14,470.39,472.29Z" style="fill:#263238"></path></g><g id="freepik--speech-bubble-1--inject-219"><circle cx="427.93" cy="102.14" r="33.85" transform="translate(53.11 332.51) rotate(-45)" style="fill:#fff"></circle><path d="M461.77,102.14s0-.18,0-.54-.05-.91-.1-1.61c0-.35,0-.75-.07-1.18s-.14-.91-.21-1.42-.17-1.06-.26-1.64a16,16,0,0,0-.45-1.85,32.15,32.15,0,0,0-3.74-9,33.61,33.61,0,0,0-8.58-9.56l-1.45-1.08c-.51-.34-1.05-.65-1.59-1a18.92,18.92,0,0,0-1.64-1l-1.75-.84L441,71.1l-.93-.34-1.9-.69c-.64-.22-1.31-.35-2-.54a17.24,17.24,0,0,0-2-.46,32.89,32.89,0,0,0-4.25-.49c-.73,0-1.46-.1-2.2-.08l-2.23.11c-.37,0-.75,0-1.12.07l-1.12.18c-.75.12-1.51.21-2.27.36a36.85,36.85,0,0,0-4.48,1.32,34.64,34.64,0,0,0-4.39,1.93c-.71.39-1.39.83-2.1,1.25-.34.22-.71.41-1,.66l-1,.74a38.64,38.64,0,0,0-3.81,3.24l-1.71,1.89-.43.47-.39.51-.77,1-.77,1-.68,1.1-.68,1.12-.33.56-.29.58L397,89c-.31.82-.61,1.65-.92,2.49a33.4,33.4,0,0,0,0,21.22c.31.84.61,1.67.91,2.5s.77,1.58,1.15,2.37l.28.59.34.56.68,1.11.68,1.11.77,1,.77,1,.39.52.43.47,1.71,1.88a37.62,37.62,0,0,0,3.81,3.25l1,.74c.33.25.7.44,1,.66.71.41,1.39.86,2.1,1.25a36.14,36.14,0,0,0,4.39,1.93,35.09,35.09,0,0,0,4.48,1.31c.76.16,1.52.25,2.27.37l1.12.17c.37.05.75.05,1.13.08l2.22.11c.74,0,1.47-.06,2.2-.08a32.69,32.69,0,0,0,4.25-.49,16.82,16.82,0,0,0,2-.47c.67-.18,1.34-.31,2-.53l1.89-.69.94-.34.88-.42,1.75-.84c.59-.26,1.1-.64,1.65-1s1.07-.63,1.58-1l1.46-1.08a33.75,33.75,0,0,0,8.57-9.57,32,32,0,0,0,3.74-9,17,17,0,0,0,.45-1.85c.09-.59.18-1.13.26-1.65s.17-1,.21-1.41.05-.83.07-1.18c.05-.7.08-1.23.1-1.61s0-.55,0-.55,0,.19,0,.55,0,.92-.06,1.61c0,.36,0,.76,0,1.19s-.13.91-.2,1.42-.15,1.07-.24,1.66-.28,1.2-.42,1.86a32.16,32.16,0,0,1-3.71,9.06,34,34,0,0,1-8.59,9.68l-1.47,1.1c-.51.34-1,.65-1.59,1s-1.07.7-1.66,1l-1.76.85-.9.43-.94.35-1.91.7c-.65.22-1.33.36-2,.54a15.78,15.78,0,0,1-2.06.47,30.43,30.43,0,0,1-4.3.51c-.74,0-1.47.1-2.22.09l-2.25-.11c-.38,0-.76,0-1.14-.07l-1.13-.17c-.76-.13-1.53-.21-2.3-.37a36,36,0,0,1-4.54-1.32,35.42,35.42,0,0,1-4.44-2c-.72-.39-1.41-.84-2.12-1.26-.35-.22-.72-.41-1.06-.67l-1-.75a37.21,37.21,0,0,1-3.87-3.27c-.57-.64-1.15-1.27-1.73-1.91l-.44-.48-.39-.52-.78-1-.78-1L399,120.1l-.68-1.13-.35-.56-.29-.6-1.16-2.4c-.3-.84-.61-1.68-.92-2.52a33.71,33.71,0,0,1,0-21.5l.93-2.52,1.15-2.4.29-.6.35-.56.68-1.13.69-1.12.78-1,.78-1,.4-.52.43-.47,1.74-1.91a38.48,38.48,0,0,1,3.86-3.28l1-.75c.34-.25.71-.44,1.06-.66.71-.42,1.4-.87,2.12-1.26a35.42,35.42,0,0,1,4.44-2,36,36,0,0,1,4.54-1.32c.77-.16,1.54-.25,2.29-.37l1.14-.17c.38,0,.76,0,1.14-.07l2.25-.11c.74,0,1.48.06,2.22.09a32,32,0,0,1,4.3.5,17.62,17.62,0,0,1,2.06.48c.67.18,1.35.32,2,.54l1.91.7.94.35.9.43,1.76.85c.59.27,1.11.65,1.66,1s1.08.65,1.59,1l1.47,1.1a33.7,33.7,0,0,1,8.59,9.68,32.16,32.16,0,0,1,3.71,9.06,18.69,18.69,0,0,1,.42,1.86c.09.59.17,1.14.24,1.66s.16,1,.2,1.42,0,.83,0,1.18q0,1,.06,1.62C461.78,102,461.77,102.14,461.77,102.14Z" style="fill:#263238"></path><path d="M415.89,96.34h6.43s0-5.4,5.61-5.49a5.22,5.22,0,0,1,5,3.32,5.79,5.79,0,0,1-.46,5.21c-1.09,1.79-3.48,3.43-7.82,2.67v9.43h6.36v-3.43A12.41,12.41,0,0,0,440,95.92c0-9.4-8.43-11.59-12-11.59C425.17,84.33,415.77,85,415.89,96.34Z" style="fill:#FF963C"></path><rect x="424.68" y="113.93" width="6.45" height="6.03" style="fill:#FF963C"></rect><path d="M396.44,131.31a5.17,5.17,0,1,1-5.17-5.17A5.18,5.18,0,0,1,396.44,131.31Z" style="fill:#fff"></path><path d="M396.44,131.31c-.05,0,0-.46-.25-1.24a5.12,5.12,0,0,0-1.89-2.75,5,5,0,0,0-4.72-.68,4.87,4.87,0,0,0-2.3,1.74,5,5,0,0,0,7,6.91,5.06,5.06,0,0,0,1.89-2.74c.22-.78.2-1.24.25-1.24a1.19,1.19,0,0,1,0,.33,3.75,3.75,0,0,1-.1,1,5.15,5.15,0,0,1-1.87,2.94,5.31,5.31,0,0,1-7.55-1,5.34,5.34,0,0,1,0-6.36,5.27,5.27,0,0,1,2.5-1.86,5.34,5.34,0,0,1,5.05.81,5.13,5.13,0,0,1,1.87,3,3.71,3.71,0,0,1,.1.95A1.25,1.25,0,0,1,396.44,131.31Z" style="fill:#263238"></path></g><g id="freepik--character-2--inject-219"><path d="M371.74,103.54a8,8,0,0,0,3-15.7,8.36,8.36,0,0,0-7.63-13.92,10,10,0,0,0-15.29-7.83,11.25,11.25,0,0,0-13.85.06,8,8,0,0,0-6.74,13.75" style="fill:#263238"></path><path d="M336.45,74.12l1.77,0a34.1,34.1,0,0,1,34.71,30.56c1.71,16.44,3.39,34.63,3.49,43.47.2,18.3-18,21.57-18,21.57l2.06,21.95L316,191.29l-5.79-79.64C308.14,92.69,317.44,75.68,336.45,74.12Z" style="fill:#ffbf9d"></path><path d="M358.41,169.68a47.37,47.37,0,0,1-25.23-6.49s7.44,13.34,25.66,11.27Z" style="fill:#ff9a6c"></path><path d="M367.34,124.5a2.61,2.61,0,0,1-2.46,2.69,2.49,2.49,0,0,1-2.74-2.29,2.62,2.62,0,0,1,2.45-2.7A2.5,2.5,0,0,1,367.34,124.5Z" style="fill:#263238"></path><path d="M369.21,113.68c-.32.35-2.33-1.07-5.14-1s-4.84,1.52-5.16,1.19c-.15-.15.17-.77,1-1.45a7.15,7.15,0,0,1,4.11-1.37,6.92,6.92,0,0,1,4.11,1.22C369.06,112.92,369.36,113.53,369.21,113.68Z" style="fill:#263238"></path><path d="M343.13,124.5a2.61,2.61,0,0,1-2.46,2.69,2.51,2.51,0,0,1-2.75-2.29,2.62,2.62,0,0,1,2.46-2.7A2.5,2.5,0,0,1,343.13,124.5Z" style="fill:#263238"></path><path d="M341.58,114.85c-.32.35-2.33-1.07-5.14-1s-4.84,1.52-5.15,1.19c-.16-.15.16-.78,1-1.45a7.19,7.19,0,0,1,4.12-1.37,6.82,6.82,0,0,1,4.1,1.21C341.43,114.09,341.74,114.7,341.58,114.85Z" style="fill:#263238"></path><path d="M352.27,135.47c0-.16,1.73-.5,4.55-.93.72-.09,1.39-.25,1.5-.74a3.62,3.62,0,0,0-.53-2.12q-1.07-2.58-2.25-5.42c-3.13-7.72-5.41-14.07-5.1-14.19s3.1,6,6.23,13.75c.76,1.9,1.48,3.71,2.16,5.45a4.17,4.17,0,0,1,.44,2.81,1.83,1.83,0,0,1-1.15,1.08,4.92,4.92,0,0,1-1.22.19C354.05,135.57,352.29,135.63,352.27,135.47Z" style="fill:#263238"></path><path d="M342.18,109.05c-.36.72-2.79,0-5.76,0s-5.45.53-5.74-.21c-.12-.35.39-1,1.44-1.59a8.81,8.81,0,0,1,4.43-1,8.59,8.59,0,0,1,4.33,1.21C341.88,108,342.33,108.7,342.18,109.05Z" style="fill:#263238"></path><path d="M369.07,102.09c-.57.65-2.91,0-5.7.07s-5.15.55-5.7-.1c-.25-.32.11-1,1.12-1.6a9.13,9.13,0,0,1,4.62-1.15,8.8,8.8,0,0,1,4.58,1.18C369,101.12,369.33,101.77,369.07,102.09Z" style="fill:#263238"></path><path d="M371,96.29s-5.1-11.35-10.68-13.89c-6.77-3.08-9.48,4.33-15.89,2.69s-12.88-4.59-19.28.49c-7,5.56-3.57,9.27-3.82,17.4-1,33-6.82,42.4-8.89,26.94-.22-1.7-5-2.94-5.84-10.1-1.12-9.28-1.74-20.57.18-27.22,1.62-5.61,4.71-9.53,10.3-13.9,8.83-6.91,21.16-7.34,29.56-6.69S371.41,81.93,371,96.29Z" style="fill:#263238"></path><path d="M313.58,129.39a5,5,0,0,0-5.48-4.66c-3.4.41-7.15,2.43-6.76,9.48.69,12.5,13.09,9.23,13.1,8.87S313.91,134.62,313.58,129.39Z" style="fill:#ffbf9d"></path><path d="M311.46,138.52c-.06,0-.21.17-.57.36a2.2,2.2,0,0,1-1.63.12c-1.35-.41-2.57-2.45-2.76-4.7a7.33,7.33,0,0,1,.44-3.15,2.55,2.55,0,0,1,1.54-1.76,1.1,1.1,0,0,1,1.32.53c.19.34.12.59.19.61s.26-.23.13-.74a1.4,1.4,0,0,0-.54-.75,1.61,1.61,0,0,0-1.22-.25,3.06,3.06,0,0,0-2.17,2.06,7.52,7.52,0,0,0-.56,3.53c.22,2.51,1.64,4.8,3.48,5.22a2.35,2.35,0,0,0,2-.44C311.45,138.83,311.5,138.54,311.46,138.52Z" style="fill:#ff9a6c"></path><path d="M313.26,105.15c1.65,1.07,3.39,2.18,5.35,2.32s4.18-1,4.46-3c.13-.88-.11-1.88.45-2.57s1.93-.59,3-.51c3.65.3,7.8-3.81,8.65-7.37a3.25,3.25,0,0,0,4.38.8,11.87,11.87,0,0,0,3-2.75c1.07-1.28,2.59-2.44,4.25-2.25.92.11,1.8.64,2.73.54,1.64-.19,2.4-2.13,2.61-3.76s.36-3.55,1.73-4.47,2.95-.41,4.47-.22,3.46-.22,3.81-1.7a3,3,0,0,0-.61-2.26,8.11,8.11,0,0,0-9.64-2.84,11,11,0,0,0-20.22-1.66A11.14,11.14,0,0,0,313.89,78a8.08,8.08,0,0,0-8.83,12c-2.22,1.34-4.1,3.61-4.08,6.2s2.59,5.12,5.08,4.38a4.47,4.47,0,0,0,7.84,4.28" style="fill:#263238"></path><path d="M352.85,78.79a.7.7,0,0,1,0,.23,5.38,5.38,0,0,1-.06.67,8.07,8.07,0,0,1-.85,2.44,9.21,9.21,0,0,1-2.71,3,8.36,8.36,0,0,1-5.09,1.58l.21-.28a4.58,4.58,0,0,1-.17,3.46A12.83,12.83,0,0,1,342.11,93a8.9,8.9,0,0,1-1.37,1.47,4.36,4.36,0,0,1-2,.78,4.53,4.53,0,0,1-4.06-1.35l.46-.14a9.39,9.39,0,0,1-3.83,6.58,6.8,6.8,0,0,1-4.07,1.44,12.32,12.32,0,0,1-4.07-.79l.33-.15a9.93,9.93,0,0,1-2.87,3.93,5.27,5.27,0,0,1-4.33,1.28,6.89,6.89,0,0,1-5.44-5.26l.29.12a6.42,6.42,0,0,1-4.28.73,7,7,0,0,1-3-1.26,6.12,6.12,0,0,1-1.43-1.5,3.18,3.18,0,0,1-.34-.64,7.7,7.7,0,0,0,1.89,2,6.83,6.83,0,0,0,2.95,1.14,6.14,6.14,0,0,0,4-.76l.24-.14,0,.27a6.51,6.51,0,0,0,5.14,4.88,4.8,4.8,0,0,0,3.93-1.22,9.37,9.37,0,0,0,2.69-3.73l.1-.23.24.08a11.68,11.68,0,0,0,3.89.75A6.28,6.28,0,0,0,331,99.93a8.87,8.87,0,0,0,3.62-6.2l.07-.6.4.45a4,4,0,0,0,3.58,1.19,3.84,3.84,0,0,0,1.74-.67,8.53,8.53,0,0,0,1.29-1.38,12.76,12.76,0,0,0,2-3,4.16,4.16,0,0,0,.2-3.14l-.11-.29h.31A8,8,0,0,0,349,84.87,8.92,8.92,0,0,0,351.73,82,9.56,9.56,0,0,0,352.85,78.79Z" style="fill:#455a64"></path><path d="M262.87,189.67s-47,16.56-60.62,23.4c-10.63,5.34-17.36,24.73-1,32.81,12.19,6,78.2-5.49,78.2-5.49Z" style="fill:#ffbf9d"></path><path d="M406.42,354.3,287,349.78l-4.33,40.67L277.83,472l61,.26c0-.35,7.61-45.86,7.61-45.86l3.44-.9-.32,46.76h57.16c3-38.7,4.72-71.2,4.83-74.26A149.23,149.23,0,0,0,406.42,354.3Z" style="fill:#263238"></path><path d="M342.13,401.08a7.65,7.65,0,0,0,1.81.92,20.33,20.33,0,0,0,5.34,1.62,10.87,10.87,0,0,0,3.91-.14,8,8,0,0,0,4-2.13,9.79,9.79,0,0,0,2.3-4.45c.43-1.67.65-3.4.92-5.16,1.06-7.05,1.71-13.48,2-18.14.17-2.32.27-4.21.31-5.52a8.91,8.91,0,0,0,0-2,9.09,9.09,0,0,0-.32,2c-.16,1.48-.35,3.32-.59,5.49-.5,4.63-1.24,11-2.3,18.06-.54,3.48-.86,7-2.92,9.16a8.85,8.85,0,0,1-7.26,2.22,24,24,0,0,1-5.28-1.31A9.59,9.59,0,0,0,342.13,401.08Z" style="fill:#455a64"></path><path d="M353.52,367.66s-.29-.21-.89-.22a3.83,3.83,0,0,0-2.34.86,4.28,4.28,0,0,0-1.65,3.36,4.21,4.21,0,0,0,7.28,2.39,4.28,4.28,0,0,0,.66-3.69,3.84,3.84,0,0,0-1.38-2.08c-.49-.35-.83-.38-.84-.34a4.86,4.86,0,0,1,1.6,2.57,3.73,3.73,0,0,1-.68,3,3.44,3.44,0,0,1-5.81-1.91,3.71,3.71,0,0,1,1.23-2.83A4.87,4.87,0,0,1,353.52,367.66Z" style="fill:#455a64"></path><path d="M287,388a4.55,4.55,0,0,0,1.45.17,28.07,28.07,0,0,0,4-.13A38.59,38.59,0,0,0,315.81,377a27.23,27.23,0,0,0,2.63-3c.56-.76.85-1.19.8-1.23s-1.43,1.52-3.87,3.77a42.93,42.93,0,0,1-23.06,10.88C289,387.87,287,387.84,287,388Z" style="fill:#455a64"></path><path d="M408.83,347.67c-2.35-5.34-1.91-5.83-1.91-5.83l-6.64-58.13-6.38-56.54-5.18-41.86-29.88-6.4s-3.44,9.54-17.89,9.83c-16.65.33-26.18-14.56-26.18-14.56L267,184.45l18,123.26,2.15,33.2s-3.56,5.37-3.56,11.13-.24,9.61-.24,9.61c44.36,12.18,88.38,22.74,128.88,10.94C412.18,372.59,411.17,353,408.83,347.67Z" style="fill:#455a64"></path><path d="M377.82,183.13s17.23,1.92,23.34,8.41,25.65,38.59,25.65,38.59L398.43,269,385.28,251Z" style="fill:#455a64"></path><path d="M391,203.22c.24,0,2.95,21.31,6.06,47.65s5.44,47.72,5.2,47.74-2.95-21.31-6.06-47.65S390.71,203.24,391,203.22Z" style="fill:#263238"></path><polygon points="266.98 184.44 228.71 201.43 242.56 240.16 279.44 246.01 266.98 184.44" style="fill:#455a64"></polygon><path d="M272.24,210.12c.26,0,2.08,15.09,4.08,33.75s3.41,33.83,3.15,33.85-2.08-15.08-4.07-33.75S272,210.15,272.24,210.12Z" style="fill:#263238"></path><g style="opacity:0.30000000000000004"><path d="M281.68,406.52c20.77-7.47,32.28-22.19,41.58-37.8s10.61-37.59,4.67-54.76c0,0-42.94,41.53-43.24,42.45S281.68,406.52,281.68,406.52Z"></path></g><g style="opacity:0.30000000000000004"><path d="M340.12,188.2c-.52,4.21,1.84,8.28,4.73,11.39s6.39,5.66,9,9c3,3.8,4.73,8.44,6.4,13q5.25,14.27,10.49,28.51c3,8.19,6.06,16.45,10.84,23.75s11.5,13.65,19.8,16.32l-6.31-53.54-33.25-53.48Z"></path></g><path d="M374.57,188.66c0-.67.54-25.47-1.13-28.16s-3-5.22-3.32-7.75a1.66,1.66,0,0,0-.75-2.39c-1.65-.93-4.27,1.32-4.33,5.31s.4,10.78.4,10.78-18.3-10.38-23.31-10.67-12.54-1.21-12.94,1.21-.06,3,2.57,3.92,6.78,1.56,10.88,3a51.88,51.88,0,0,1,6,2.32s-9.35-2.75-11.4,0-1.77,5.23-.46,6.56a4.23,4.23,0,0,0-2.51,4.21c.29,3.06,1.66,3.81,1.66,3.81s-2.74,2.08-1.43,4.73,4.39,1,7.3,4,10.14,10,12.93,11.6,9.18,2.19,9.18,2.19Z" style="fill:#ffbf9d"></path><path d="M374.57,188.66s-.05.09-.16.26l-.52.73c-.47.67-1.16,1.63-2.05,2.87L364,203.34l-.05.06h-.07c-1.27-.13-2.58-.32-3.95-.57a24.83,24.83,0,0,1-4.21-1.12,8.11,8.11,0,0,1-2-1.11c-.65-.45-1.26-1-1.89-1.46-1.25-1-2.49-2.14-3.75-3.31s-2.55-2.38-3.84-3.65l-2-1.95a8.91,8.91,0,0,0-2.11-1.77,9.06,9.06,0,0,0-2.67-.91,4.52,4.52,0,0,1-2.73-1.3,3.49,3.49,0,0,1-.72-3,5.1,5.1,0,0,1,1.77-2.63l0,.36a3.87,3.87,0,0,1-1.35-2,8.15,8.15,0,0,1-.43-2.38,4.08,4.08,0,0,1,.7-2.4,4.86,4.86,0,0,1,2-1.65l-.08.37a4.38,4.38,0,0,1-.81-4.53,8,8,0,0,1,1.11-2.13,2.48,2.48,0,0,1,.92-.87,4.68,4.68,0,0,1,1.18-.44,14.42,14.42,0,0,1,4.86,0,36.92,36.92,0,0,1,4.82,1l-.17.43a61.91,61.91,0,0,0-7.65-2.84c-2.65-.79-5.43-1.31-8.2-2.09a12.13,12.13,0,0,1-2.91-1.19,2,2,0,0,1-.91-1.4,5.59,5.59,0,0,1,.06-1.59,1.92,1.92,0,0,1,.23-.81,2,2,0,0,1,.62-.6,4.52,4.52,0,0,1,1.5-.51,16.45,16.45,0,0,1,3-.23c2,0,4,.15,5.93.29a26.86,26.86,0,0,1,2.93.28c.49.11.95.26,1.42.38l1.37.48a109,109,0,0,1,10.23,4.67q4.88,2.51,9.37,5l-.33.2c-.22-3.93-.45-7.69-.35-11.33a6.19,6.19,0,0,1,2.34-4.73,2.56,2.56,0,0,1,1.29-.44,2,2,0,0,1,1.29.44,1.78,1.78,0,0,1,.73,1.13,2,2,0,0,1-.25,1.31l0-.12a20,20,0,0,0,3.07,7.33,3.13,3.13,0,0,1,.43.88,6.31,6.31,0,0,1,.23.93c.11.61.19,1.22.25,1.82.13,1.2.2,2.37.26,3.5.22,4.5.22,8.39.22,11.58s-.06,5.65-.1,7.33c0,.83,0,1.46-.05,1.91s0,.65,0,.65,0-.22,0-.65V186.1c0-1.7,0-4.17,0-7.33s-.05-7.07-.3-11.57c-.06-1.12-.14-2.28-.27-3.47-.07-.6-.15-1.2-.26-1.8a4.17,4.17,0,0,0-.63-1.7,20.23,20.23,0,0,1-3.15-7.45v-.06l0-.06a1.64,1.64,0,0,0,.2-1.06,1.45,1.45,0,0,0-.6-.89,1.74,1.74,0,0,0-2.14,0,5.83,5.83,0,0,0-2.15,4.44c-.09,3.57.15,7.36.38,11.27l0,.39-.35-.19q-4.49-2.52-9.36-5A105.26,105.26,0,0,0,345.79,157l-1.35-.47c-.45-.12-.91-.27-1.37-.37a26.35,26.35,0,0,0-2.87-.27c-1.95-.13-3.92-.28-5.9-.28a17,17,0,0,0-2.95.21c-.92.19-2,.52-2,1.53a4.68,4.68,0,0,0-.05,1.44,1.52,1.52,0,0,0,.71,1.08A11.27,11.27,0,0,0,332.8,161c2.73.77,5.53,1.29,8.21,2.1a60.11,60.11,0,0,1,7.72,2.87l-.17.44a37.55,37.55,0,0,0-4.75-1,14.54,14.54,0,0,0-4.7,0,2.78,2.78,0,0,0-1.83,1.12,7.53,7.53,0,0,0-1,2,3.91,3.91,0,0,0,.69,4.07l.23.23-.3.14a4.43,4.43,0,0,0-1.76,1.48,3.68,3.68,0,0,0-.63,2.15,7.64,7.64,0,0,0,.4,2.24,3.59,3.59,0,0,0,1.15,1.75l.25.18-.22.18a4.67,4.67,0,0,0-1.61,2.39,3,3,0,0,0,.62,2.65,4.11,4.11,0,0,0,2.5,1.18,9.54,9.54,0,0,1,2.78.95,9.39,9.39,0,0,1,2.19,1.85l1.94,2c1.29,1.27,2.57,2.49,3.82,3.66s2.49,2.27,3.73,3.31a14.26,14.26,0,0,0,3.83,2.54,25.1,25.1,0,0,0,4.15,1.12c1.35.26,2.66.45,3.91.6l-.12.05,7.92-10.72,2.11-2.83.55-.73Z" style="fill:#ff9a6c"></path><path d="M433.87,246.56c-1.83-3.49-6-10.76-7.95-15.22l-13.08,4.76s-37-50-38.23-50S357.34,201,357.34,201c.71.71,34.06,77.16,46.84,85.44s22.3,13.54,29.16,1.71S441.91,261.94,433.87,246.56Z" style="fill:#ffbf9d"></path><path d="M429.59,258.56a5.81,5.81,0,0,1-.61-1c-.36-.64-.9-1.56-1.59-2.69a93.9,93.9,0,0,0-5.82-8.45c-2.44-3.19-4.82-5.94-6.54-7.93l-2-2.36a5.82,5.82,0,0,1-.71-.9,5.63,5.63,0,0,1,.85.78c.52.52,1.26,1.29,2.16,2.25,1.79,1.94,4.21,4.67,6.67,7.87a75,75,0,0,1,5.74,8.57c.64,1.15,1.14,2.1,1.45,2.77A5,5,0,0,1,429.59,258.56Z" style="fill:#ff9a6c"></path><path d="M354.23,147.12c-.33.24-1.71-1.18-3.9-1.94s-4.14-.62-4.23-1c-.05-.18.42-.5,1.3-.67a6.95,6.95,0,0,1,6.26,2.28C354.22,146.46,354.38,147,354.23,147.12Z" style="fill:#263238"></path><path d="M387.67,347.33a2.7,2.7,0,0,1-.45.26c-.32.16-.76.42-1.37.67a21.63,21.63,0,0,1-5.41,1.45,31.53,31.53,0,0,1-8.29,0,61.12,61.12,0,0,1-9.91-2.21c-6.89-2.11-13-4.42-17.35-6.2-2.18-.89-3.93-1.66-5.13-2.2l-1.37-.64a2,2,0,0,1-.47-.26,2.19,2.19,0,0,1,.5.17c.38.14.84.33,1.41.56l5.19,2.05c4.38,1.71,10.49,4,17.35,6.06a64.52,64.52,0,0,0,9.83,2.23,32.18,32.18,0,0,0,8.2.15,23.94,23.94,0,0,0,5.38-1.29C387,347.6,387.65,347.29,387.67,347.33Z" style="fill:#263238"></path><path d="M297.19,251.92c-16.7-11.25-36.57-15.27-49.59-15.28-12.19,0-30.14,1.9-46.38,11.05a64.36,64.36,0,0,0-23.94,23.09c-6.86,11.42-10.58,25.55-11.06,42a9.12,9.12,0,0,0,9.11,9.34l32,0a9.15,9.15,0,0,0,9-7.82c1.42-10,7.38-26.9,31.31-27.3,18.24-.29,25.74,12.9,28.12,18.59A32.59,32.59,0,0,1,273.11,335c-8.52,14-24.17,16.16-32.74,16.19A17.92,17.92,0,0,0,222.48,369l0,34.4a9.12,9.12,0,0,0,9.11,9.12l31.15,0a9.13,9.13,0,0,0,9.12-9.11V396.2a.41.41,0,0,1,.28-.39,90.3,90.3,0,0,0,33.07-20.68c15.74-15.63,23.73-35.81,23.74-60C328.94,280.57,311.68,261.68,297.19,251.92Z" style="fill:#FF963C"></path><path d="M248.68,421.18H246a23.63,23.63,0,0,0,0,47.25h2.73a23.63,23.63,0,0,0,0-47.26Z" style="fill:#FF963C"></path><g style="opacity:0.30000000000000004"><path d="M327.72,293.06a39.68,39.68,0,0,0-2.64-10.13c-6.23-15.56-20.87-26.17-37.53-28.06l-80.38-9.15c8.74,8.94,20.15,10.72,32.25,13.85s25.13,7.84,37.35,10.44c3.92.84,8,1.88,11,4.48s4.64,6.25,6.2,9.84q3.5,8,7,15.94c2.65,6.06,6.18,12.91,13.32,13.3a11.29,11.29,0,0,0,7.91-2.8C327.38,306.34,328.47,299.43,327.72,293.06Z"></path></g><path d="M326.57,271.53c-.62-1.1-12.83-16-18.91-21.83-3.92-3.74-9.83-6.32-13.53-7.68,0,0-61.17-22.09-65.42-24.25l-27.47,28.11c9.56,2.66,74.5,18.3,90.52,21.81,2.8,3.27,5.62,5.95,5.62,5.95L302,284.58a43.64,43.64,0,0,1,.2,8.25c-.33,4.27,3.13,2.61,3.13,2.61a60.82,60.82,0,0,0,.06,6.47.49.49,0,0,1,0,.12c.23,2.86,4.34,3.21,5.21.48l3.16-9.86s-.41,9-.58,14a5,5,0,0,0,.41,2.26,3.11,3.11,0,0,0,5.82-.68l3.69-15.6L322,283.05l3.1,8.73a60.35,60.35,0,0,1,.68,11.22c-.07,2.62.82,3.74,1.9,4.13a3,3,0,0,0,3.9-2.71L332.71,290S327.2,272.62,326.57,271.53Z" style="fill:#ffbf9d"></path><path d="M224.77,216.68a18.3,18.3,0,0,1,4.49.93,104.3,104.3,0,0,1,10.46,3.62c4,1.59,7.6,3.13,10.2,4.23a26,26,0,0,1,4.16,1.93,19.77,19.77,0,0,1-4.4-1.32c-2.67-.95-6.3-2.39-10.3-4s-7.64-3-10.31-3.86A28.78,28.78,0,0,1,224.77,216.68Z" style="fill:#ff9a6c"></path></g></svg>
